<svg xmlns="http://www.w3.org/2000/svg" viewBox="146 124 462 320" width="462" height="320" fill="none" role="img" aria-label="Aeronive Labs"><style>
  :root{--lg:#0e8a56;--lgc:#0a6c46;--lb:#1a5e8b;--lbc:#1a5e8b;--gold:#e2a62b;
        --word:#1c2e42;--labs:#0e8a56;--ring:.3;--arc:.55}
  @media (prefers-color-scheme:dark){
    :root{--lg:#11a063;--lgc:#18bd77;--lb:#2a7cb4;--lbc:#48a4dd;--gold:#e2a62b;
          --word:#eef2ff;--labs:#22b87e;--ring:.5;--arc:.8}
  }
</style><defs><mask id="m-gaps" maskUnits="userSpaceOnUse" x="140" y="118" width="480" height="336"><rect x="140" y="118" width="480" height="336" fill="#fff"/><g fill="#000"><circle cx="371.5" cy="146.1" r="13.0"/><circle cx="215.5" cy="423.3" r="13.0"/><circle cx="527.5" cy="423.3" r="13.0"/><circle cx="246.8" cy="371.2" r="12.0"/><circle cx="451.2" cy="288.1" r="12.0"/></g></mask></defs><g mask="url(#m-gaps)"><path d="M147 399.5C189.1 387.8 231.2 376.5 273.3 354.7C315.4 332.9 357.6 300.7 399.7 265.3C441.8 229.9 483.9 191.4 526 175.3L537.5 199C495.2 216.6 452.9 255.5 410.7 290.8C368.4 326.1 326.1 357.9 283.8 379.5C241.6 401 199.3 412.3 157 424.8Z" fill="var(--lb)"/><path d="M215.5 423.3L371.5 146.1L527.5 423.3" fill="none" stroke="var(--lg)" stroke-width="38.0" stroke-linecap="round" stroke-linejoin="round"/><g fill="var(--lg)"><circle cx="371.5" cy="146.1" r="22.0"/><circle cx="215.5" cy="423.3" r="22.0"/><circle cx="527.5" cy="423.3" r="22.0"/></g></g><g fill="var(--lgc)"><circle cx="371.5" cy="146.1" r="9.0"/><circle cx="215.5" cy="423.3" r="9.0"/><circle cx="527.5" cy="423.3" r="9.0"/></g><g fill="var(--lb)"><circle cx="246.8" cy="371.2" r="8.5"/><circle cx="451.2" cy="288.1" r="8.5"/></g><path d="M399 146.5Q467.8 134.8 541.8 155.5" fill="none" stroke="#e2a62a" stroke-width="3.4" stroke-linecap="round" stroke-dasharray="0 12" opacity="var(--arc)"/><circle cx="572.3" cy="159.8" r="33.2" fill="none" stroke="#e2a62a" stroke-width="2.8" opacity="var(--ring)"/><circle cx="572.3" cy="159.8" r="20.8" fill="#e2a62a"/></svg>
